<svg xmlns="http://www.w3.org/2000/svg" width="20" height="20" viewBox="0 0 20 20">
  <path fill-opacity=".202" fill-rule="evenodd" d="M567.124447,30 L574.560013,37.4355653 C575.146662,38.0222152 575.146662,38.9733627 574.560013,39.5600126 C573.973363,40.1466625 573.022215,40.1466625 572.435565,39.5600126 L565,32.1244472 L557.564435,39.5600126 C556.977785,40.1466625 556.026637,40.1466625 555.439987,39.5600126 C554.853338,38.9733627 554.853338,38.0222152 555.439987,37.4355653 L562.875553,30 L555.439987,22.5644347 C554.853338,21.9777848 554.853338,21.0266373 555.439987,20.4399874 C556.026637,19.8533375 556.977785,19.8533375 557.564435,20.4399874 L565,27.8755528 L572.435565,20.4399874 C573.022215,19.8533375 573.973363,19.8533375 574.560013,20.4399874 C575.146662,21.0266373 575.146662,21.9777848 574.560013,22.5644347 L567.124447,30 Z" transform="translate(-555 -20)"/>
</svg>
