<svg xmlns="http://www.w3.org/2000/svg" xmlns:xlink="http://www.w3.org/1999/xlink" width="45" height="30" viewBox="0 0 45 30">
  <defs>
    <path id="email-b" d="M4.09090909,12.2727273 L38.5227273,12.2727273 C40.782074,12.2727273 42.6136364,14.1042897 42.6136364,16.3636364 C28.4090909,25.4545455 21.3068182,30 21.3068182,30 C21.3068182,30 14.2045455,25.4545455 0,16.3636364 C0,14.1042897 1.83156239,12.2727273 4.09090909,12.2727273 Z"/>
    <filter id="email-a" width="109.4%" height="122.6%" x="-4.7%" y="-5.6%" filterUnits="objectBoundingBox">
      <feOffset dy="1" in="SourceAlpha" result="shadowOffsetOuter1"/>
      <feGaussianBlur in="shadowOffsetOuter1" result="shadowBlurOuter1" stdDeviation=".5"/>
      <feColorMatrix in="shadowBlurOuter1" values="0 0 0 0 0   0 0 0 0 0   0 0 0 0 0  0 0 0 0.0458276721 0"/>
    </filter>
    <path id="email-d" d="M4.09090909,0 L38.5227273,0 C41.8302327,1.0658141e-14 42.6136364,1.36881031 42.6136364,4.09090909 C28.4090909,13.9784013 21.3068182,18.9221473 21.3068182,18.9221473 C21.3068182,18.9221473 14.2045455,13.9784013 -1.13686838e-13,4.09090909 C-8.52651283e-14,1.09210099 0.598740243,1.0658141e-14 4.09090909,0 Z"/>
    <filter id="email-c" width="109.4%" height="121.1%" x="-4.7%" y="-5.3%" filterUnits="objectBoundingBox">
      <feOffset dy="1" in="SourceAlpha" result="shadowOffsetOuter1"/>
      <feGaussianBlur in="shadowOffsetOuter1" result="shadowBlurOuter1" stdDeviation=".5"/>
      <feColorMatrix in="shadowBlurOuter1" values="0 0 0 0 0   0 0 0 0 0   0 0 0 0 0  0 0 0 0.0794270833 0"/>
    </filter>
  </defs>
  <g fill="none" fill-rule="evenodd" transform="translate(1)">
    <rect width="42.614" height="30" fill="#E9E3D3" rx="3"/>
    <g transform="matrix(1 0 0 -1 0 42.273)">
      <use fill="#000" filter="url(#email-a)" xlink:href="#email-b"/>
      <use fill="#EDE8DB" xlink:href="#email-b"/>
    </g>
    <use fill="#000" filter="url(#email-c)" xlink:href="#email-d"/>
    <use fill="#F7F6F3" xlink:href="#email-d"/>
  </g>
</svg>
