<?xml version="1.0" encoding="UTF-8"?>
<svg width="53px" height="53px" viewBox="0 0 53 53" version="1.1" xmlns="http://www.w3.org/2000/svg" xmlns:xlink="http://www.w3.org/1999/xlink">
    <!-- Generator: Sketch 45.2 (43514) - http://www.bohemiancoding.com/sketch -->
    <title>at-sign</title>
    <desc>Created with Sketch.</desc>
    <defs></defs>
    <g id="Page-1" stroke="none" stroke-width="1" fill="none" fill-rule="evenodd">
        <g id="Desktop-HD" transform="translate(-750.000000, -742.000000)" fill-rule="nonzero" fill="#23292E">
            <g id="at-sign" transform="translate(750.000000, 745.000000)">
                <path d="M26.1904762,35.7142857 C19.6156577,35.7142857 14.2857143,30.3843423 14.2857143,23.8095238 C14.2857143,17.2347054 19.6156577,11.9047619 26.1904762,11.9047619 C32.7652946,11.9047619 38.0952381,17.2347054 38.0952381,23.8095238 C38.0952381,30.3843423 32.7652946,35.7142857 26.1904762,35.7142857 Z M26.1904762,30.952381 C30.1353673,30.952381 33.3333333,27.7544149 33.3333333,23.8095238 C33.3333333,19.8646327 30.1353673,16.6666667 26.1904762,16.6666667 C22.2455851,16.6666667 19.047619,19.8646327 19.047619,23.8095238 C19.047619,27.7544149 22.2455851,30.952381 26.1904762,30.952381 Z" id="Oval"></path>
                <path d="M33.3333333,23.8095238 L33.3333333,26.1904762 C33.3333333,31.450331 37.5972881,35.7142857 42.8571429,35.7142857 C48.1169976,35.7142857 52.3809524,31.450331 52.3809524,26.1904762 L52.3809524,23.8095238 C52.3801859,11.6384097 43.995114,1.07188756 32.1426247,-1.69413262 C20.2901354,-4.4601528 8.09411841,1.30335232 2.70614646,12.2167445 C-2.68182549,23.1301367 0.158323098,36.3170384 9.56116908,44.0448361 C18.9640151,51.7726339 32.4513066,52.0045582 42.1142857,44.604612 C43.1582841,43.805114 43.3564908,42.310665 42.5569929,41.2666667 C41.757495,40.2226683 40.263046,40.0244615 39.2190476,40.8239595 C31.3129738,46.8784609 20.2779171,46.6887046 12.5846795,40.365961 C4.89144185,34.0432174 2.56768392,23.2539342 6.9760246,14.3247952 C11.3843653,5.39565612 21.3629246,0.68006101 31.0604159,2.94316843 C40.7579071,5.20627586 47.6184205,13.8516121 47.6190476,23.8096737 L47.6190476,26.1904762 C47.6190476,28.8204036 45.4870702,30.952381 42.8571429,30.952381 C40.2272155,30.952381 38.0952381,28.8204036 38.0952381,26.1904762 L38.0952381,23.8095238 C38.0952381,22.4945601 37.0292494,21.4285714 35.7142857,21.4285714 C34.399322,21.4285714 33.3333333,22.4945601 33.3333333,23.8095238 Z" id="Shape"></path>
            </g>
        </g>
    </g>
</svg>