<?xml version="1.0" encoding="UTF-8"?>
<svg width="46px" height="50px" viewBox="0 0 46 50" version="1.1" xmlns="http://www.w3.org/2000/svg" xmlns:xlink="http://www.w3.org/1999/xlink">
    <!-- Generator: Sketch 45.2 (43514) - http://www.bohemiancoding.com/sketch -->
    <title>github</title>
    <desc>Created with Sketch.</desc>
    <defs></defs>
    <g id="Page-1" stroke="none" stroke-width="1" fill="none" fill-rule="evenodd">
        <g id="Desktop-HD" transform="translate(-701.000000, -685.000000)" fill-rule="nonzero" fill="#23292E">
            <g id="Group-2" transform="translate(602.000000, 685.000000)">
                <g id="github" transform="translate(99.000000, 0.000000)">
                    <path d="M16.9037292,38.8934632 C12.3759689,40.2517913 10.5463735,39.5328858 8.28195594,36.7290998 C8.13182507,36.5432088 7.50239219,35.7441702 7.33397433,35.5360539 C5.98074526,33.8638494 4.89799736,32.9568722 3.28816419,32.5544139 C2.16064966,32.2725353 1.01811075,32.9580586 0.736232112,34.0855732 C0.454353478,35.2130877 1.13987682,36.3556266 2.26739136,36.6375053 C2.75220709,36.7587092 3.23948245,37.1668814 4.06230135,38.1836505 C4.20794952,38.36363 4.83568001,39.1605075 5.00769064,39.3734899 C8.27836564,43.4232168 11.8168456,44.8135967 18.1131058,42.9247186 C19.2263063,42.5907585 19.8580053,41.417603 19.5240452,40.3044026 C19.1900851,39.1912022 18.0169296,38.5595031 16.9037292,38.8934632 Z M45.9175084,18.8552189 C45.9169476,15.8038323 44.8873828,12.8553855 43.015724,10.4768926 C43.7346297,7.73875351 43.5261534,4.82554069 42.4013728,2.20128596 C42.1549107,1.62625907 41.6653741,1.19070699 41.0655828,1.0128028 C40.9450579,0.977053899 40.798069,0.944705883 40.6248388,0.919560348 C38.6470696,0.63247371 35.7477455,1.41328458 31.862304,3.87804464 C27.267222,2.78733054 22.4802528,2.78733054 17.8851707,3.87804464 C13.9997292,1.41328458 11.1004051,0.63247371 9.12263593,0.919560348 C8.94940577,0.944705883 8.80241682,0.977053899 8.68189195,1.0128028 C8.08210069,1.19070699 7.592564,1.62625907 7.34610198,2.20128596 C6.22132524,4.82553151 6.01284647,7.73873313 6.73174322,10.4768639 C4.84431644,12.875292 3.81363911,15.852689 3.82999607,18.9295372 C3.8299697,28.6333001 8.16453438,33.3778463 16.0367268,35.1843705 C15.5323029,36.45366 15.3112844,37.8333732 15.409226,39.2259242 L15.4040404,47.2222222 C15.4040404,48.3844376 16.3462021,49.3265993 17.5084175,49.3265993 C18.6706329,49.3265993 19.6127946,48.3844376 19.6127946,47.2222222 L19.6127946,39.0782828 C19.5082632,37.5181244 20.0140276,36.1299626 20.9987459,35.1124147 C22.2059766,33.8649361 21.4686484,31.7746297 19.7459107,31.5606591 C11.7604255,30.5688313 8.03872054,27.4393894 8.03872054,18.9183502 C8.02584814,16.4913751 8.94920696,14.1645109 10.6150054,12.4148503 C11.1703169,11.8315825 11.3440456,10.9825384 11.0624659,10.2280286 C10.4575596,8.60714541 10.3614087,6.85215041 10.768531,5.19268507 C10.9162768,5.22607414 11.078318,5.26756077 11.2550173,5.31842744 C12.6110173,5.70878096 14.30093,6.52813753 16.3366901,7.89276795 C16.8427153,8.23197165 17.470905,8.33524148 18.0588898,8.17588508 C22.5216238,6.96638934 27.225851,6.96638934 31.6885849,8.17588508 C32.2765698,8.33524148 32.9047595,8.23197165 33.4107847,7.89276795 C35.4465448,6.52813753 37.1364575,5.70878096 38.4924574,5.31842744 C38.6691568,5.26756077 38.8311979,5.22607414 38.9789438,5.19268507 C39.3860661,6.85215041 39.2899151,8.60714541 38.6850088,10.2280286 C38.4034346,10.9825238 38.5771508,11.8315512 39.1324396,12.4148191 C40.7859047,14.1515967 41.7083135,16.4576184 41.7087542,18.8556057 C41.7087542,27.4572689 37.9588781,30.6103989 30.0278222,31.4944338 C28.2895398,31.6881914 27.532591,33.7948257 28.7500248,35.0506213 C29.7467464,36.0787501 30.2534636,37.4856988 30.1411617,38.9132461 L30.1346801,47.2222222 C30.1346801,48.3844376 31.0768419,49.3265993 32.2390572,49.3265993 C33.4012726,49.3265993 34.3434343,48.3844376 34.3434343,47.2222222 L34.3434343,39.0782828 C34.4503531,37.7632165 34.2348286,36.4120523 33.7319043,35.1498102 C41.5610969,33.4140582 45.9175084,28.6240482 45.9175084,18.8552189 Z" id="Shape"></path>
                </g>
            </g>
        </g>
    </g>
</svg>