<svg xmlns="http://www.w3.org/2000/svg" width="31" height="30" viewBox="0 0 31 30">
  <path fill="#161514" fill-rule="evenodd" d="M708,626.379758 C708,633.174938 712.406769,638.939928 718.517617,640.973567 C719.286249,641.115934 719.568437,640.639933 719.568437,640.233714 C719.568437,639.866972 719.554175,638.655448 719.547553,637.370321 C715.268889,638.300675 714.36604,635.555709 714.36604,635.555709 C713.666428,633.778026 712.658395,633.305336 712.658395,633.305336 C711.26299,632.350786 712.763579,632.370397 712.763579,632.370397 C714.307973,632.478891 715.121173,633.955285 715.121173,633.955285 C716.492893,636.306512 718.719071,635.626765 719.596706,635.23379 C719.734744,634.239765 720.133322,633.561291 720.573159,633.17723 C717.157104,632.78833 713.566083,631.469585 713.566083,625.57649 C713.566083,623.897369 714.166879,622.525395 715.150717,621.448344 C714.991031,621.060972 714.464602,619.496713 715.299706,617.378265 C715.299706,617.378265 716.5912,616.964916 719.530234,618.954749 C720.757039,618.613984 722.072728,618.443092 723.379758,618.437234 C724.686788,618.443092 726.003496,618.613984 727.232593,618.954749 C730.168062,616.964916 731.457773,617.378265 731.457773,617.378265 C732.294914,619.496713 731.768231,621.060972 731.608545,621.448344 C732.594675,622.525395 733.191396,623.897369 733.191396,625.57649 C733.191396,631.483593 729.593498,632.784255 726.168785,633.165006 C726.720427,633.64228 727.211964,634.578238 727.211964,636.013118 C727.211964,638.070952 727.194136,639.727151 727.194136,640.233714 C727.194136,640.642989 727.470976,641.122556 728.250558,640.971529 C734.358096,638.935598 738.759262,633.172646 738.759262,626.379758 C738.759262,617.885592 731.873415,611 723.379758,611 C714.886866,611 708,617.885592 708,626.379758 Z" transform="translate(-708 -611)"/>
</svg>
