<svg xmlns="http://www.w3.org/2000/svg" width="27" height="30" viewBox="0 0 27 30">
  <g fill="none" fill-rule="evenodd">
    <path fill="#FFF" d="M1,0 L26,0 C26.5522847,-1.01453063e-16 27,0.44771525 27,1 L27,29 C27,29.5522847 26.5522847,30 26,30 L1,30 C0.44771525,30 6.76353751e-17,29.5522847 0,29 L0,1 C-6.76353751e-17,0.44771525 0.44771525,1.01453063e-16 1,0 Z"/>
    <circle cx="4" cy="4" r="2" fill="#E8A48E"/>
    <path fill="#292929" d="M8.4124737,4.226 C8.5784737,4.276 8.6924737,4.394 8.6924737,4.592 C8.6924737,4.85 8.4984737,5 8.2524737,5 L7.5764737,5 L7.5764737,3.5 L8.1364737,3.5 C8.3844737,3.5 8.5804737,3.654 8.5804737,3.914 C8.5804737,4.064 8.5164737,4.166 8.4124737,4.226 Z M8.2804737,3.944 C8.2804737,3.846 8.2004737,3.762 8.1004737,3.762 L7.8764737,3.762 L7.8764737,4.128 L8.1004737,4.128 C8.2004737,4.128 8.2804737,4.042 8.2804737,3.944 Z M8.2084737,4.736 C8.3104737,4.736 8.3904737,4.652 8.3904737,4.554 C8.3904737,4.456 8.3104737,4.372 8.2084737,4.372 L7.8764737,4.372 L7.8764737,4.736 L8.2084737,4.736 Z M9.82678949,4.498 C9.82678949,4.526 9.82478949,4.554 9.82078949,4.584 L9.14278949,4.584 C9.15878949,4.716 9.22478949,4.796 9.36278949,4.796 C9.46078949,4.796 9.52478949,4.762 9.59478949,4.658 L9.80078949,4.76 C9.72678949,4.92 9.56878949,5.02 9.36878949,5.02 C9.01878949,5.02 8.85278949,4.798 8.85278949,4.5 C8.85278949,4.204 9.03878949,3.978 9.35878949,3.978 C9.64878949,3.978 9.82678949,4.182 9.82678949,4.498 Z M9.35478949,4.206 C9.23478949,4.206 9.17278949,4.278 9.14878949,4.388 L9.55078949,4.388 C9.53078949,4.272 9.47078949,4.206 9.35478949,4.206 Z M10.4471053,5.02 C10.2651053,5.02 10.0791053,4.98 9.96910527,4.896 L10.0971053,4.69 C10.1631053,4.746 10.2991053,4.79 10.3951053,4.796 C10.4891053,4.802 10.5591053,4.774 10.5591053,4.718 C10.5591053,4.65 10.4631053,4.622 10.3511053,4.59 C10.1971053,4.546 10.0131053,4.49 10.0131053,4.302 C10.0131053,4.11 10.1791053,3.98 10.4311053,3.98 C10.5571053,3.98 10.7211053,4.01 10.8411053,4.088 L10.7051053,4.276 C10.6511053,4.236 10.5511053,4.2 10.4751053,4.192 C10.3911053,4.182 10.3051053,4.204 10.3051053,4.262 C10.3051053,4.33 10.4111053,4.354 10.5291053,4.392 C10.6791053,4.438 10.8471053,4.504 10.8471053,4.7 C10.8471053,4.898 10.6911053,5.02 10.4471053,5.02 Z M11.5794211,4.738 L11.7194211,4.946 C11.6634211,4.994 11.5874211,5.02 11.4914211,5.02 C11.2194211,5.02 11.0934211,4.872 11.0934211,4.65 L11.0934211,4.218 L10.9734211,4.218 L10.9734211,4 L11.0934211,4 L11.0934211,3.66 L11.3854211,3.66 L11.3854211,4 L11.6354211,4 L11.6354211,4.218 L11.3854211,4.218 L11.3854211,4.652 C11.3854211,4.734 11.4274211,4.774 11.4894211,4.774 C11.5274211,4.774 11.5554211,4.764 11.5794211,4.738 Z M13.1240526,4.344 L13.4880526,5 L13.1500526,5 L12.8220526,4.364 L12.6740526,4.364 L12.6740526,5 L12.3720526,5 L12.3720526,3.5 L12.9920526,3.5 C13.2400526,3.5 13.4360526,3.698 13.4360526,3.948 C13.4360526,4.146 13.3060526,4.298 13.1240526,4.344 Z M12.9800526,4.13 C13.0840526,4.13 13.1620526,4.05 13.1620526,3.946 C13.1620526,3.842 13.0820526,3.762 12.9800526,3.762 L12.6740526,3.762 L12.6740526,4.13 L12.9800526,4.13 Z M14.5403684,4.498 C14.5403684,4.526 14.5383684,4.554 14.5343684,4.584 L13.8563684,4.584 C13.8723684,4.716 13.9383684,4.796 14.0763684,4.796 C14.1743684,4.796 14.2383684,4.762 14.3083684,4.658 L14.5143684,4.76 C14.4403684,4.92 14.2823684,5.02 14.0823684,5.02 C13.7323684,5.02 13.5663684,4.798 13.5663684,4.5 C13.5663684,4.204 13.7523684,3.978 14.0723684,3.978 C14.3623684,3.978 14.5403684,4.182 14.5403684,4.498 Z M14.0683684,4.206 C13.9483684,4.206 13.8863684,4.278 13.8623684,4.388 L14.2643684,4.388 C14.2443684,4.272 14.1843684,4.206 14.0683684,4.206 Z M15.1606842,5.02 C14.9786842,5.02 14.7926842,4.98 14.6826842,4.896 L14.8106842,4.69 C14.8766842,4.746 15.0126842,4.79 15.1086842,4.796 C15.2026842,4.802 15.2726842,4.774 15.2726842,4.718 C15.2726842,4.65 15.1766842,4.622 15.0646842,4.59 C14.9106842,4.546 14.7266842,4.49 14.7266842,4.302 C14.7266842,4.11 14.8926842,3.98 15.1446842,3.98 C15.2706842,3.98 15.4346842,4.01 15.5546842,4.088 L15.4186842,4.276 C15.3646842,4.236 15.2646842,4.2 15.1886842,4.192 C15.1046842,4.182 15.0186842,4.204 15.0186842,4.262 C15.0186842,4.33 15.1246842,4.354 15.2426842,4.392 C15.3926842,4.438 15.5606842,4.504 15.5606842,4.7 C15.5606842,4.898 15.4046842,5.02 15.1606842,5.02 Z M16.451,4 L16.741,4 L16.741,5 L16.481,5 L16.465,4.882 C16.389,4.968 16.283,5.02 16.163,5.02 C15.941,5.02 15.767,4.84 15.767,4.614 L15.767,4 L16.059,4 L16.059,4.578 C16.059,4.682 16.141,4.764 16.247,4.764 C16.359,4.764 16.451,4.682 16.451,4.578 L16.451,4 Z M18.2093158,3.98 C18.4353158,3.98 18.5833158,4.132 18.5833158,4.364 L18.5833158,5 L18.2913158,5 L18.2913158,4.4 C18.2913158,4.302 18.2253158,4.234 18.1253158,4.234 C18.0213158,4.234 17.9413158,4.316 17.9413158,4.42 L17.9413158,5 L17.6493158,5 L17.6493158,4.4 C17.6493158,4.302 17.5833158,4.234 17.4853158,4.234 C17.3813158,4.234 17.2993158,4.316 17.2993158,4.42 L17.2993158,5 L17.0073158,5 L17.0073158,4 L17.2693158,4 L17.2833158,4.106 C17.3533158,4.028 17.4513158,3.98 17.5673158,3.98 C17.7053158,3.98 17.8153158,4.038 17.8793158,4.136 C17.9573158,4.04 18.0733158,3.98 18.2093158,3.98 Z M19.7596316,4.498 C19.7596316,4.526 19.7576316,4.554 19.7536316,4.584 L19.0756316,4.584 C19.0916316,4.716 19.1576316,4.796 19.2956316,4.796 C19.3936316,4.796 19.4576316,4.762 19.5276316,4.658 L19.7336316,4.76 C19.6596316,4.92 19.5016316,5.02 19.3016316,5.02 C18.9516316,5.02 18.7856316,4.798 18.7856316,4.5 C18.7856316,4.204 18.9716316,3.978 19.2916316,3.978 C19.5816316,3.978 19.7596316,4.182 19.7596316,4.498 Z M19.2876316,4.206 C19.1676316,4.206 19.1056316,4.278 19.0816316,4.388 L19.4836316,4.388 C19.4636316,4.272 19.4036316,4.206 19.2876316,4.206 Z M21.3982632,4.498 C21.3982632,4.526 21.3962632,4.554 21.3922632,4.584 L20.7142632,4.584 C20.7302632,4.716 20.7962632,4.796 20.9342632,4.796 C21.0322632,4.796 21.0962632,4.762 21.1662632,4.658 L21.3722632,4.76 C21.2982632,4.92 21.1402632,5.02 20.9402632,5.02 C20.5902632,5.02 20.4242632,4.798 20.4242632,4.5 C20.4242632,4.204 20.6102632,3.978 20.9302632,3.978 C21.2202632,3.978 21.3982632,4.182 21.3982632,4.498 Z M20.9262632,4.206 C20.8062632,4.206 20.7442632,4.278 20.7202632,4.388 L21.1222632,4.388 C21.1022632,4.272 21.0422632,4.206 20.9262632,4.206 Z M22.2105789,4 L22.5225789,4 L22.1205789,5 L21.8445789,5 L21.4445789,4 L21.7565789,4 L21.9825789,4.68 L22.2105789,4 Z M23.5448947,4.498 C23.5448947,4.526 23.5428947,4.554 23.5388947,4.584 L22.8608947,4.584 C22.8768947,4.716 22.9428947,4.796 23.0808947,4.796 C23.1788947,4.796 23.2428947,4.762 23.3128947,4.658 L23.5188947,4.76 C23.4448947,4.92 23.2868947,5.02 23.0868947,5.02 C22.7368947,5.02 22.5708947,4.798 22.5708947,4.5 C22.5708947,4.204 22.7568947,3.978 23.0768947,3.978 C23.3668947,3.978 23.5448947,4.182 23.5448947,4.498 Z M23.0728947,4.206 C22.9528947,4.206 22.8908947,4.278 22.8668947,4.388 L23.2688947,4.388 C23.2488947,4.272 23.1888947,4.206 23.0728947,4.206 Z M24.3152105,3.98 C24.4312105,3.98 24.4972105,4.008 24.5572105,4.066 L24.4352105,4.28 C24.4072105,4.26 24.3632105,4.234 24.2792105,4.234 C24.1592105,4.234 24.0432105,4.334 24.0432105,4.5 L24.0432105,5 L23.7512105,5 L23.7512105,4 L24.0132105,4 L24.0292105,4.154 C24.0972105,4.048 24.1992105,3.98 24.3152105,3.98 Z"/>
    <rect width="13.338" height="1" x="2" y="8" fill="#9B9B9B"/>
    <rect width="13.338" height="1" x="2" y="10" fill="#9B9B9B"/>
    <rect width="13.338" height="1" x="2" y="12" fill="#9B9B9B"/>
    <rect width="13.338" height="1" x="2" y="14" fill="#9B9B9B"/>
    <rect width="13.338" height="1" x="2" y="16" fill="#9B9B9B"/>
    <rect width="6.273" height="1" x="19" y="8" fill="#9B9B9B"/>
    <rect width="6.273" height="1" x="19" y="10" fill="#9B9B9B"/>
    <rect width="6.273" height="1" x="19" y="12" fill="#9B9B9B"/>
    <rect width="6.273" height="1" x="19" y="14" fill="#9B9B9B"/>
    <rect width="6.273" height="1" x="19" y="16" fill="#9B9B9B"/>
    <rect width="23" height="1" x="2" y="19" fill="#9B9B9B"/>
    <rect width="23" height="1" x="2" y="21" fill="#9B9B9B"/>
    <rect width="23" height="1" x="2" y="23" fill="#9B9B9B"/>
    <rect width="23" height="1" x="2" y="25" fill="#9B9B9B"/>
  </g>
</svg>
