<?xml version="1.0" encoding="UTF-8"?>
<svg width="59px" height="50px" viewBox="0 0 59 50" version="1.1" xmlns="http://www.w3.org/2000/svg" xmlns:xlink="http://www.w3.org/1999/xlink">
    <!-- Generator: Sketch 45.2 (43514) - http://www.bohemiancoding.com/sketch -->
    <title>Shape</title>
    <desc>Created with Sketch.</desc>
    <defs></defs>
    <g id="Page-1" stroke="none" stroke-width="1" fill="none" fill-rule="evenodd">
        <g id="Desktop-HD" transform="translate(-602.000000, -685.000000)" fill-rule="nonzero" fill="#23292E">
            <g id="Group-2" transform="translate(602.000000, 685.000000)">
                <g id="twitter">
                    <path d="M54.7389815,1.36543453 C56.5706992,0.073387154 59.0248238,1.74399157 58.494431,3.9218942 C57.6634314,7.33415034 55.9976819,10.4792954 53.6551952,13.0785281 C53.6912855,13.471477 53.7100398,13.8669955 53.7113487,14.2648026 C53.7113487,43.0356437 25.9433412,57.8153896 1.58746164,44.2843454 C-0.646100749,43.0434774 0.308960287,39.6380296 2.862045,39.7395813 C6.95371327,39.9023318 11.0041473,39.0888596 14.6873041,37.3923197 C9.34008825,34.0963757 5.91616866,29.7328477 4.23648301,24.5708869 C2.50220683,19.2411601 2.75534774,13.6402934 4.20217719,8.32106752 C4.63983589,6.71202818 5.0846675,5.49964398 5.40070389,4.78856211 C6.16651843,3.06547939 8.51924617,2.83651487 9.60292082,4.37960762 C13.6581711,10.1540596 20.0701315,13.7587331 27.0248104,14.2805856 C26.9875445,8.73832067 30.3943987,3.75002149 35.5782932,1.77143581 C40.26625,-0.0178606615 45.5105111,0.996591372 49.181564,4.28195729 C51.1516945,3.55776856 53.0203716,2.57769846 54.7389815,1.36543453 Z M49.2192287,9.38257745 C48.3055274,9.65771251 47.3153983,9.37166198 46.6891984,8.65164598 C44.3644376,5.97859379 40.6181271,5.0412132 37.3084507,6.30444845 C33.9987744,7.56768371 31.8297609,10.7628215 31.8774671,14.3375822 L31.8774671,16.7635691 C31.8774671,18.0789094 30.829263,19.1546456 29.5143646,19.1887408 C21.6038648,19.393859 14.0463402,16.2799087 8.59784289,10.7307695 C7.63949506,14.8672995 7.56942115,19.133081 8.8503368,23.0695535 C10.4927947,28.1171071 14.252702,32.2147306 20.7328195,35.0947828 C22.4716775,35.8676086 22.6844466,38.2502067 21.1100397,39.3189114 C18.395112,41.1617996 15.4203443,42.5449006 12.3046085,43.4342511 C30.9341321,48.3353472 48.8593767,35.9681843 48.8593883,14.272823 C48.8576507,13.7472398 48.807117,13.2229532 48.708438,12.7067137 C48.5564001,11.9113276 48.8112476,11.0925249 49.3878212,10.5239147 C49.92824,9.99096003 50.4287768,9.42291724 50.886746,8.82452514 C50.3372489,9.02722986 49.7811661,9.21336603 49.2192287,9.38257745 Z" id="Shape"></path>
                </g>
            </g>
        </g>
    </g>
</svg>