<svg xmlns="http://www.w3.org/2000/svg" width="37" height="30" viewBox="0 0 37 30">
  <path fill="#1DA1F2" d="M770.61073,641 C784.543014,641 792.163386,629.457204 792.163386,619.447343 C792.163386,619.11949 792.163386,618.793114 792.141234,618.468214 C793.623708,617.395914 794.903405,616.06821 795.920407,614.547267 C794.537928,615.159853 793.071376,615.561587 791.569706,615.739058 C793.150998,614.792392 794.334489,613.303451 794.899927,611.54933 C793.413005,612.431662 791.786275,613.053485 790.089936,613.387966 C787.741921,610.891252 784.010946,610.280173 780.989129,611.897386 C777.967311,613.514599 776.406163,616.957912 777.181085,620.296513 C771.090541,619.99118 765.415993,617.114451 761.56966,612.382254 C759.559156,615.843387 760.586083,620.271199 763.914845,622.494015 C762.70938,622.458287 761.530199,622.133101 760.476816,621.545899 C760.476816,621.576912 760.476816,621.609402 760.476816,621.641892 C760.477803,625.247677 763.019527,628.353336 766.553915,629.067325 C765.438726,629.37146 764.268661,629.415919 763.133609,629.197284 C764.125952,632.282978 766.969749,634.396835 770.210512,634.457704 C767.528223,636.565759 764.214726,637.710137 760.803193,637.7067 C760.200509,637.705543 759.598412,637.669052 759,637.597415 C762.464073,639.820432 766.494715,640.999582 770.61073,640.994093" transform="translate(-759 -611)"/>
</svg>
